<svg width="499" height="310" viewBox="0 0 499 310" fill="none" xmlns="http://www.w3.org/2000/svg">
<path d="M138 31C138 19.9543 146.954 11 158 11H203C214.046 11 223 19.9543 223 31V105H138V31Z" fill="url(#paint0_linear_1_2)"/>
<path d="M277 31C277 19.9543 285.954 11 297 11H342C353.046 11 362 19.9543 362 31V105H277V31Z" fill="url(#paint1_linear_1_2)"/>
<path d="M288 43C288 31.9543 296.954 23 308 23H331C342.046 23 351 31.9543 351 43V93H288V43Z" fill="url(#paint2_linear_1_2)"/>
<path d="M149 43C149 31.9543 157.954 23 169 23H192C203.046 23 212 31.9543 212 43V93H149V43Z" fill="url(#paint3_linear_1_2)"/>
<rect x="118" y="90" width="264" height="174" rx="20" fill="url(#paint4_linear_1_2)"/>
<path d="M172 183C172 174.716 178.716 168 187 168H312C320.284 168 327 174.716 327 183V264H172V183Z" fill="url(#paint5_linear_1_2)"/>
<path d="M43 270C43 261.716 49.7157 255 58 255H106C108.761 255 111 257.239 111 260V294C111 296.761 108.761 299 106 299H48C45.2386 299 43 296.761 43 294V270Z" fill="url(#paint6_linear_1_2)"/>
<path d="M457 270C457 261.716 450.284 255 442 255H394C391.239 255 389 257.239 389 260V294C389 296.761 391.239 299 394 299H452C454.761 299 457 296.761 457 294V270Z" fill="url(#paint7_linear_1_2)"/>
<path d="M62 163C62 151.954 70.9543 143 82 143H101C106.523 143 111 147.477 111 153V244C111 246.761 108.761 249 106 249H67C64.2386 249 62 246.761 62 244V163Z" fill="url(#paint8_linear_1_2)"/>
<path d="M438 163C438 151.954 429.046 143 418 143H399C393.477 143 389 147.477 389 153V244C389 246.761 391.239 249 394 249H433C435.761 249 438 246.761 438 244V163Z" fill="url(#paint9_linear_1_2)"/>
<defs>
<linearGradient id="paint0_linear_1_2" x1="180.5" y1="11" x2="180.5" y2="105" gradientUnits="userSpaceOnUse">
<stop stop-color="#98DC88"/>
<stop offset="1" stop-color="#85CD8E"/>
</linearGradient>
<linearGradient id="paint1_linear_1_2" x1="319.5" y1="11" x2="319.5" y2="105" gradientUnits="userSpaceOnUse">
<stop stop-color="#98DC88"/>
<stop offset="1" stop-color="#85CD8E"/>
</linearGradient>
<linearGradient id="paint2_linear_1_2" x1="319.5" y1="23" x2="319.5" y2="93" gradientUnits="userSpaceOnUse">
<stop stop-color="#2D3211"/>
<stop offset="1" stop-color="#0F071C"/>
</linearGradient>
<linearGradient id="paint3_linear_1_2" x1="180.5" y1="23" x2="180.5" y2="93" gradientUnits="userSpaceOnUse">
<stop stop-color="#2D3211"/>
<stop offset="1" stop-color="#0F071C"/>
</linearGradient>
<linearGradient id="paint4_linear_1_2" x1="250" y1="90" x2="250" y2="264" gradientUnits="userSpaceOnUse">
<stop stop-color="#98DC88"/>
<stop offset="1" stop-color="#95B9B2"/>
</linearGradient>
<linearGradient id="paint5_linear_1_2" x1="249.5" y1="168" x2="249.5" y2="264" gradientUnits="userSpaceOnUse">
<stop stop-color="#D8EBAD"/>
<stop offset="1" stop-color="#E5E6D4"/>
</linearGradient>
<linearGradient id="paint6_linear_1_2" x1="77" y1="255" x2="77" y2="299" gradientUnits="userSpaceOnUse">
<stop stop-color="#98DC88"/>
<stop offset="1" stop-color="#95B9B2"/>
</linearGradient>
<linearGradient id="paint7_linear_1_2" x1="423" y1="255" x2="423" y2="299" gradientUnits="userSpaceOnUse">
<stop stop-color="#98DC88"/>
<stop offset="1" stop-color="#95B9B2"/>
</linearGradient>
<linearGradient id="paint8_linear_1_2" x1="86.5" y1="143" x2="86.5" y2="249" gradientUnits="userSpaceOnUse">
<stop stop-color="#98DC88"/>
<stop offset="1" stop-color="#95B9B2"/>
</linearGradient>
<linearGradient id="paint9_linear_1_2" x1="413.5" y1="143" x2="413.5" y2="249" gradientUnits="userSpaceOnUse">
<stop stop-color="#98DC88"/>
<stop offset="1" stop-color="#95B9B2"/>
</linearGradient>
</defs>
</svg>
