<svg width="534" height="534" viewBox="0 0 534 534" fill="none" xmlns="http://www.w3.org/2000/svg">
<path d="M155 250C155 238.954 163.954 230 175 230H220C231.046 230 240 238.954 240 250V324H155V250Z" fill="url(#paint0_linear_1_2)"/>
<path d="M294 250C294 238.954 302.954 230 314 230H359C370.046 230 379 238.954 379 250V324H294V250Z" fill="url(#paint1_linear_1_2)"/>
<path d="M305 262C305 250.954 313.954 242 325 242H348C359.046 242 368 250.954 368 262V312H305V262Z" fill="url(#paint2_linear_1_2)"/>
<path d="M166 262C166 250.954 174.954 242 186 242H209C220.046 242 229 250.954 229 262V312H166V262Z" fill="url(#paint3_linear_1_2)"/>
<rect x="135" y="309" width="264" height="174" rx="20" fill="url(#paint4_linear_1_2)"/>
<path d="M189 402C189 393.716 195.716 387 204 387H329C337.284 387 344 393.716 344 402V483H189V402Z" fill="url(#paint5_linear_1_2)"/>
<path d="M60 489C60 480.716 66.7157 474 75 474H123C125.761 474 128 476.239 128 479V513C128 515.761 125.761 518 123 518H65C62.2386 518 60 515.761 60 513V489Z" fill="url(#paint6_linear_1_2)"/>
<path d="M474 489C474 480.716 467.284 474 459 474H411C408.239 474 406 476.239 406 479V513C406 515.761 408.239 518 411 518H469C471.761 518 474 515.761 474 513V489Z" fill="url(#paint7_linear_1_2)"/>
<path d="M79 382C79 370.954 87.9543 362 99 362H118C123.523 362 128 366.477 128 372V463C128 465.761 125.761 468 123 468H84C81.2386 468 79 465.761 79 463V382Z" fill="url(#paint8_linear_1_2)"/>
<path d="M455 382C455 370.954 446.046 362 435 362H416C410.477 362 406 366.477 406 372V463C406 465.761 408.239 468 411 468H450C452.761 468 455 465.761 455 463V382Z" fill="url(#paint9_linear_1_2)"/>
<defs>
<linearGradient id="paint0_linear_1_2" x1="197.5" y1="230" x2="197.5" y2="324" gradientUnits="userSpaceOnUse">
<stop stop-color="#98DC88"/>
<stop offset="1" stop-color="#85CD8E"/>
</linearGradient>
<linearGradient id="paint1_linear_1_2" x1="336.5" y1="230" x2="336.5" y2="324" gradientUnits="userSpaceOnUse">
<stop stop-color="#98DC88"/>
<stop offset="1" stop-color="#85CD8E"/>
</linearGradient>
<linearGradient id="paint2_linear_1_2" x1="336.5" y1="242" x2="336.5" y2="312" gradientUnits="userSpaceOnUse">
<stop stop-color="#2D3211"/>
<stop offset="1" stop-color="#0F071C"/>
</linearGradient>
<linearGradient id="paint3_linear_1_2" x1="197.5" y1="242" x2="197.5" y2="312" gradientUnits="userSpaceOnUse">
<stop stop-color="#2D3211"/>
<stop offset="1" stop-color="#0F071C"/>
</linearGradient>
<linearGradient id="paint4_linear_1_2" x1="267" y1="309" x2="267" y2="483" gradientUnits="userSpaceOnUse">
<stop stop-color="#98DC88"/>
<stop offset="1" stop-color="#95B9B2"/>
</linearGradient>
<linearGradient id="paint5_linear_1_2" x1="266.5" y1="387" x2="266.5" y2="483" gradientUnits="userSpaceOnUse">
<stop stop-color="#D8EBAD"/>
<stop offset="1" stop-color="#E5E6D4"/>
</linearGradient>
<linearGradient id="paint6_linear_1_2" x1="94" y1="474" x2="94" y2="518" gradientUnits="userSpaceOnUse">
<stop stop-color="#98DC88"/>
<stop offset="1" stop-color="#95B9B2"/>
</linearGradient>
<linearGradient id="paint7_linear_1_2" x1="440" y1="474" x2="440" y2="518" gradientUnits="userSpaceOnUse">
<stop stop-color="#98DC88"/>
<stop offset="1" stop-color="#95B9B2"/>
</linearGradient>
<linearGradient id="paint8_linear_1_2" x1="103.5" y1="362" x2="103.5" y2="468" gradientUnits="userSpaceOnUse">
<stop stop-color="#98DC88"/>
<stop offset="1" stop-color="#95B9B2"/>
</linearGradient>
<linearGradient id="paint9_linear_1_2" x1="430.5" y1="362" x2="430.5" y2="468" gradientUnits="userSpaceOnUse">
<stop stop-color="#98DC88"/>
<stop offset="1" stop-color="#95B9B2"/>
</linearGradient>
</defs>
</svg>
